<svg xmlns="http://www.w3.org/2000/svg" viewBox="0 0 1016.7 296.916"><path d="M326.871,22.132l.56-.237v.547l-.411.122Z" style="fill:#fcce2a"></path><path d="M326.871,22.132l.149.432-.021,0a.748.748,0,0,0-.764.114c-4.9,2.9-9.8,5.778-14.693,8.686q-8.976,5.338-17.933,10.711-11.2,6.681-22.4,13.35-8.452,5.021-16.931,10-11.293-8.888-22.586-17.778-15.582-12.3-31.142-24.625c-.274-.217-.528-.458-.847-.736a1.778,1.778,0,0,1,1.243-.209q62.416-.009,124.833,0C326.143,22.076,326.507,22.112,326.871,22.132Z" style="fill:#f8e82b"></path><path d="M254.278,65.427q8.466-5,16.931-10,11.211-6.657,22.4-13.35,8.969-5.352,17.933-10.711c4.89-2.908,9.8-5.787,14.693-8.686a.748.748,0,0,1,.764-.114,89.415,89.415,0,0,1-4.7,8.308q-28.908,49.392-57.856,98.76c-.274.468-.553.934-1.041,1.758-.342-2.337-.644-4.31-.917-6.288q-1.753-12.72-3.491-25.443-1.985-14.552-3.958-29.1C254.8,68.847,254.531,67.138,254.278,65.427Z" style="fill:#fcce2a"></path><path d="M470.505,27.885H514.82L470.13,160.829H416.238L371.548,27.885h44.314l27.416,91.446Z" style="fill:#fff"></path><path d="M587.112,162.144c-37.743,0-68.539-28.354-68.539-68.35s30.8-68.162,68.539-68.162c37.93,0,68.162,28.166,68.162,68.162S624.666,162.144,587.112,162.144Zm0-38.87c16.711,0,25.913-11.83,25.913-29.48,0-18.026-9.2-29.669-25.913-29.669-17.087,0-26.1,11.643-26.1,29.669C561.011,111.444,570.025,123.274,587.112,123.274Z" style="fill:#fff"></path><path d="M728.694,126.278l-20.28,34.551H660.907l43.751-68.538L659.029,27.885h49.385l23.472,33.236,19.528-33.236h47.508l-43,67.223,46.568,65.721H753.105Z" style="fill:#fff"></path><path d="M898.631,61.121H851.687V77.457H893v31.358h-41.31v18.778h46.944v33.236H810V27.885h88.63Z" style="fill:#fff"></path><path d="M954.212,27.885v101.4H994.4v31.546h-81.87V27.885Z" style="fill:#fff"></path><path d="M62.169,123.255Q39.03,85.6,15.9,47.937c-4.678-7.622-9.292-15.282-13.969-22.9A10.057,10.057,0,0,1,0,20.589H113.456l54.208,88.559c-12.795.969-25.407,3.325-38.115,4.936C107.059,116.933,84.566,119.735,62.169,123.255Z" style="fill:#4f4f4f"></path><path d="M327.431,24.571l-.3.264-.364-.162c-5.672,1.124-9.834,5.139-14.616,7.887C292.772,43.7,273.6,55.206,254.354,66.578L200.573,24.629l.443-1.053H327.431Z" style="fill:#f7e72c"></path><path d="M220.094,200.033q-17.953,28.83-35.914,57.654c-6.648,10.647-13.362,21.254-20.443,32.509-4.838-7.916-9.368-15.323-13.893-22.733q-19.776-32.394-39.538-64.8c-.764-1.253-1.354-2.613-2.025-3.924q52.9.021,105.794.082C216.1,198.829,218.439,197.924,220.094,200.033Z" style="fill:#434041"></path><path d="M220.094,200.033c-1.655-2.109-3.992-1.2-6.019-1.208q-52.9-.1-105.794-.082l-.073-.22c.409-.718.771-1.464,1.228-2.147q27.166-40.59,54.406-81.131c1.254-1.859,1.742-4.41,4.155-5.407q24.87,40.266,49.737,80.534c.868,1.406,1.821,2.773,2.542,4.251C221.147,196.406,221.85,198.291,220.094,200.033Z" style="fill:#4f4f4f"></path><path d="M168,109.838c-2.413,1-2.9,3.548-4.155,5.407q-27.3,40.5-54.406,81.131c-.457.683-.819,1.429-1.228,2.147Q91,170.694,73.82,142.851c-3.979-6.474-7.773-13.061-11.651-19.6,22.4-3.52,44.89-6.322,67.38-9.171,12.708-1.611,25.32-3.967,38.115-4.936A.616.616,0,0,1,168,109.838Z" style="fill:#434041"></path><path d="M254.354,66.578C273.6,55.206,292.772,43.7,312.154,32.56c4.782-2.748,8.944-6.763,14.616-7.887-8.179,14.171-16.311,28.37-24.55,42.506q-17.487,30.006-35.1,59.937c-.905,1.544-1.893,3.039-3.54,5.671C260.394,109.939,257.374,88.258,254.354,66.578Z" style="fill:#fbce2c"></path><polygon points="113.985 21.348 62.691 123.466 0 20.378 113.985 21.348" style="fill:#4d4c4c"></polygon><path d="M411.4,198.106H404.32a7.725,7.725,0,0,0-7.218-3.96c-5.5,0-9.329,3.916-9.329,10.033,0,6.249,3.873,10.121,9.593,10.121,4.753,0,7.789-2.728,8.713-7.085H395.518v-4.708h16.635v5.368a15.013,15.013,0,0,1-15.007,11.97c-8.933,0-15.71-6.469-15.71-15.666a15.227,15.227,0,0,1,15.666-15.71C403.967,188.469,409.424,191.945,411.4,198.106Z" style="fill:#f7e72c"></path><path d="M431.774,219.978c-7.085,0-12.234-4.929-12.234-12.586,0-7.7,5.017-12.586,12.234-12.586,7.041,0,12.014,4.8,12.014,12.057a14.508,14.508,0,0,1-.176,2.376H425.789c.308,3.609,2.773,5.633,5.853,5.633a5.024,5.024,0,0,0,4.885-2.948h6.645C441.852,216.413,437.8,219.978,431.774,219.978ZM425.833,205.1h11.573c-.087-3.212-2.639-5.237-5.808-5.237A5.663,5.663,0,0,0,425.833,205.1Z" style="fill:#f7e72c"></path><path d="M462,219.978c-6.117,0-10.386-3.565-10.65-8.1h6.2c.221,1.849,1.936,3.257,4.4,3.257,2.421,0,3.741-1.1,3.741-2.509,0-4.357-13.774-1.584-13.774-10.518,0-4.048,3.608-7.3,9.638-7.3,5.9,0,9.461,3.212,9.813,8.052h-5.9c-.177-1.891-1.673-3.168-4.093-3.168-2.289,0-3.477.924-3.477,2.332,0,4.445,13.51,1.672,13.686,10.606C471.594,216.809,467.942,219.978,462,219.978Z" style="fill:#f7e72c"></path><path d="M482.02,200.263h-2.9V195.2h2.9v-6.028h6.2V195.2h5.457v5.062h-5.457v11.793c0,1.629.66,2.333,2.6,2.333h2.861v5.192h-3.872c-4.665,0-7.789-1.98-7.789-7.569Z" style="fill:#f7e72c"></path><path d="M512.071,194.806a9.639,9.639,0,0,1,8.053,3.872V195.2h6.2v24.38h-6.2v-3.564a9.614,9.614,0,0,1-8.1,3.961c-6.162,0-11.09-5.062-11.09-12.674S505.866,194.806,512.071,194.806Zm-.043-7.7c2.507,0,3.652,1.937,5.413,1.937,1.011,0,1.715-.572,1.891-1.893h3.3c-.572,4-2.641,5.765-5.457,5.765-2.508,0-3.652-1.98-5.413-1.98-1.012,0-1.716.616-1.936,1.936H506.57C507.143,188.864,509.211,187.1,512.028,187.1Zm1.627,13.114c-3.3,0-6.424,2.465-6.424,7.086s3.124,7.26,6.424,7.26c3.389,0,6.469-2.552,6.469-7.172S517.044,200.218,513.655,200.218Z" style="fill:#f7e72c"></path><path d="M547.58,219.978c-7.041,0-12.366-4.929-12.366-12.586,0-7.7,5.5-12.586,12.542-12.586S560.3,199.69,560.3,207.392C560.3,215.049,554.665,219.978,547.58,219.978Zm0-5.37c3.256,0,6.381-2.376,6.381-7.216,0-4.885-3.037-7.218-6.293-7.218s-6.205,2.333-6.205,7.218C541.463,212.232,544.279,214.608,547.58,214.608Z" style="fill:#f7e72c"></path><path d="M584.1,188.864h18.967v4.973H590.258v7.878h9.813V206.6h-9.813v12.981H584.1Z" style="fill:#f7e72c"></path><path d="M611.157,188.688a3.789,3.789,0,1,1,3.786,3.609A3.613,3.613,0,0,1,611.157,188.688Zm.661,6.513h6.161v24.38h-6.161Z" style="fill:#f7e72c"></path><path d="M645.525,206.115c0-3.917-2.157-6.029-5.413-6.029-3.345,0-5.5,2.112-5.5,6.029v13.466h-6.162V195.2h6.162v3.037a9.105,9.105,0,0,1,7.349-3.388c5.677,0,9.725,3.7,9.725,10.429v14.3h-6.16Z" style="fill:#f7e72c"></path><path d="M671.484,194.806a9.637,9.637,0,0,1,8.052,3.872V195.2h6.205v24.38h-6.205v-3.564a9.614,9.614,0,0,1-8.1,3.961c-6.161,0-11.09-5.062-11.09-12.674S665.279,194.806,671.484,194.806Zm1.584,5.412c-3.3,0-6.425,2.465-6.425,7.086s3.124,7.26,6.425,7.26c3.388,0,6.468-2.552,6.468-7.172S676.456,200.218,673.068,200.218Z" style="fill:#f7e72c"></path><path d="M713.241,206.115c0-3.917-2.156-6.029-5.413-6.029-3.344,0-5.5,2.112-5.5,6.029v13.466h-6.161V195.2h6.161v3.037a9.107,9.107,0,0,1,7.35-3.388c5.677,0,9.725,3.7,9.725,10.429v14.3h-6.161Z" style="fill:#f7e72c"></path><path d="M740.123,194.806c6.073,0,10.166,3.168,11.486,8.625h-6.645a4.789,4.789,0,0,0-4.885-3.389c-3.432,0-5.72,2.6-5.72,7.35s2.288,7.3,5.72,7.3a4.649,4.649,0,0,0,4.885-3.344h6.645c-1.32,5.193-5.413,8.626-11.486,8.626-7.041,0-12.057-4.929-12.057-12.586S733.082,194.806,740.123,194.806Z" style="fill:#f7e72c"></path><path d="M771.187,219.978c-7.085,0-12.234-4.929-12.234-12.586,0-7.7,5.017-12.586,12.234-12.586,7.041,0,12.013,4.8,12.013,12.057a14.506,14.506,0,0,1-.175,2.376H765.2c.308,3.609,2.773,5.633,5.853,5.633a5.024,5.024,0,0,0,4.885-2.948h6.645C781.265,216.413,777.216,219.978,771.187,219.978ZM765.246,205.1H776.82c-.088-3.212-2.64-5.237-5.809-5.237A5.663,5.663,0,0,0,765.246,205.1Z" style="fill:#f7e72c"></path><path d="M791.424,188.688a3.789,3.789,0,1,1,3.785,3.609A3.613,3.613,0,0,1,791.424,188.688Zm.66,6.513h6.161v24.38h-6.161Z" style="fill:#f7e72c"></path><path d="M814.878,219.581h-6.161V195.2h6.161v3.785a8.456,8.456,0,0,1,7.482-4.136v6.468h-1.629c-3.653,0-5.853,1.409-5.853,6.118Z" style="fill:#f7e72c"></path><path d="M840.443,194.806a9.637,9.637,0,0,1,8.052,3.872V195.2H854.7v24.38H848.5v-3.564a9.614,9.614,0,0,1-8.1,3.961c-6.162,0-11.09-5.062-11.09-12.674S834.237,194.806,840.443,194.806Zm1.584,5.412c-3.3,0-6.425,2.465-6.425,7.086s3.124,7.26,6.425,7.26c3.388,0,6.468-2.552,6.468-7.172S845.415,200.218,842.027,200.218Z" style="fill:#f7e72c"></path><path d="M894.21,194.806c6.249,0,11.134,4.884,11.134,12.5s-4.885,12.674-11.134,12.674a9.953,9.953,0,0,1-8.053-3.874V231.2H880v-36h6.161v3.521A9.738,9.738,0,0,1,894.21,194.806Zm-1.628,5.412c-3.3,0-6.425,2.553-6.425,7.174s3.125,7.172,6.425,7.172c3.345,0,6.469-2.64,6.469-7.26S895.927,200.218,892.582,200.218Z" style="fill:#f7e72c"></path><path d="M923.778,194.806a9.637,9.637,0,0,1,8.052,3.872V195.2h6.2v24.38h-6.2v-3.564a9.614,9.614,0,0,1-8.1,3.961c-6.162,0-11.09-5.062-11.09-12.674S917.572,194.806,923.778,194.806Zm1.584,5.412c-3.3,0-6.425,2.465-6.425,7.086s3.124,7.26,6.425,7.26c3.388,0,6.468-2.552,6.468-7.172S928.75,200.218,925.362,200.218Z" style="fill:#f7e72c"></path><path d="M954.621,219.581H948.46V195.2h6.161v3.785a8.456,8.456,0,0,1,7.482-4.136v6.468h-1.629c-3.653,0-5.853,1.409-5.853,6.118Z" style="fill:#f7e72c"></path><path d="M980.186,194.806a9.637,9.637,0,0,1,8.052,3.872V195.2h6.206v24.38h-6.206v-3.564a9.614,9.614,0,0,1-8.1,3.961c-6.161,0-11.09-5.062-11.09-12.674S973.981,194.806,980.186,194.806Zm1.584,5.412c-3.3,0-6.425,2.465-6.425,7.086s3.124,7.26,6.425,7.26c3.388,0,6.468-2.552,6.468-7.172S985.158,200.218,981.77,200.218Z" style="fill:#f7e72c"></path><path d="M396.178,270.824H382.932V240.107h12.674c6.424,0,9.989,3.345,9.989,7.922a7.081,7.081,0,0,1-5.236,7.041,7.448,7.448,0,0,1,5.941,7.437C406.3,267.392,402.559,270.824,396.178,270.824Zm-1.452-25.744h-5.633v7.7h5.633c2.9,0,4.577-1.319,4.577-3.828C399.3,246.488,397.63,245.08,394.726,245.08Zm.44,12.454h-6.073v8.274h6.2c2.992,0,4.753-1.453,4.753-4.049C400.051,259.118,398.158,257.534,395.166,257.534Z" style="fill:#f7e72c"></path><path d="M425.174,246.049a9.639,9.639,0,0,1,8.053,3.872v-3.477h6.205v24.38h-6.205V267.26a9.616,9.616,0,0,1-8.1,3.961c-6.161,0-11.09-5.062-11.09-12.674S418.969,246.049,425.174,246.049Zm1.584,5.413c-3.3,0-6.425,2.464-6.425,7.085s3.124,7.261,6.425,7.261c3.389,0,6.469-2.553,6.469-7.173S430.147,251.462,426.758,251.462Z" style="fill:#f7e72c"></path><path d="M456.017,270.824h-6.161v-24.38h6.161v3.785a8.456,8.456,0,0,1,7.481-4.136v6.469h-1.629c-3.652,0-5.852,1.408-5.852,6.117Z" style="fill:#f7e72c"></path><path d="M482.681,271.221c-7.085,0-12.234-4.929-12.234-12.586,0-7.7,5.017-12.586,12.234-12.586,7.041,0,12.014,4.8,12.014,12.057a14.4,14.4,0,0,1-.176,2.376H476.7c.308,3.609,2.773,5.633,5.853,5.633a5.023,5.023,0,0,0,4.885-2.948h6.645C492.759,267.655,488.71,271.221,482.681,271.221Zm-5.941-14.875h11.574c-.088-3.212-2.64-5.237-5.809-5.237A5.663,5.663,0,0,0,476.74,256.346Z" style="fill:#f7e72c"></path><path d="M512.908,271.221c-6.117,0-10.385-3.566-10.65-8.1h6.205c.221,1.849,1.937,3.257,4.4,3.257,2.42,0,3.741-1.1,3.741-2.509,0-4.356-13.775-1.584-13.775-10.517,0-4.049,3.609-7.305,9.638-7.305,5.9,0,9.461,3.212,9.813,8.053h-5.9c-.176-1.892-1.672-3.168-4.092-3.168-2.289,0-3.476.923-3.476,2.332,0,4.444,13.509,1.672,13.685,10.6C522.5,268.052,518.849,271.221,512.908,271.221Z" style="fill:#f7e72c"></path><path d="M557.48,271.221c-7.085,0-12.234-4.929-12.234-12.586,0-7.7,5.017-12.586,12.234-12.586,7.041,0,12.013,4.8,12.013,12.057a14.506,14.506,0,0,1-.175,2.376H551.5c.308,3.609,2.773,5.633,5.853,5.633a5.024,5.024,0,0,0,4.885-2.948h6.645C567.558,267.655,563.509,271.221,557.48,271.221Zm-5.941-14.875h11.573c-.087-3.212-2.639-5.237-5.808-5.237A5.663,5.663,0,0,0,551.539,256.346Z" style="fill:#f7e72c"></path><path d="M604.779,240.107c7.393,0,11.089,4.269,11.089,9.418a8.869,8.869,0,0,1-7,8.845l7.349,12.454h-7.129l-6.777-11.97H599.41v11.97h-6.161V240.107Zm-.22,5.106H599.41v9.02h5.149c3.432,0,4.972-1.8,4.972-4.576C609.531,246.929,607.991,245.213,604.559,245.213Z" style="fill:#f7e72c"></path><path d="M636.5,271.221c-7.085,0-12.233-4.929-12.233-12.586,0-7.7,5.016-12.586,12.233-12.586,7.041,0,12.014,4.8,12.014,12.057a14.4,14.4,0,0,1-.176,2.376H630.517c.307,3.609,2.772,5.633,5.852,5.633a5.023,5.023,0,0,0,4.885-2.948H647.9C646.579,267.655,642.53,271.221,636.5,271.221Zm-5.94-14.875h11.573c-.088-3.212-2.64-5.237-5.809-5.237A5.662,5.662,0,0,0,630.561,256.346Z" style="fill:#f7e72c"></path><path d="M666.73,271.221c-6.118,0-10.386-3.566-10.651-8.1h6.205c.221,1.849,1.937,3.257,4.4,3.257,2.421,0,3.741-1.1,3.741-2.509,0-4.356-13.774-1.584-13.774-10.517,0-4.049,3.608-7.305,9.637-7.305,5.9,0,9.461,3.212,9.814,8.053h-5.9c-.177-1.892-1.673-3.168-4.093-3.168-2.289,0-3.476.923-3.476,2.332,0,4.444,13.51,1.672,13.685,10.6C676.322,268.052,672.67,271.221,666.73,271.221Z" style="fill:#f7e72c"></path><path d="M686.748,251.506h-2.9v-5.062h2.9v-6.028h6.2v6.028h5.457v5.062h-5.457V263.3c0,1.629.66,2.333,2.6,2.333h2.86v5.192h-3.872c-4.665,0-7.789-1.98-7.789-7.569Z" style="fill:#f7e72c"></path><path d="M716.8,246.049a9.639,9.639,0,0,1,8.053,3.872v-3.477h6.205v24.38h-6.205V267.26a9.616,9.616,0,0,1-8.1,3.961c-6.161,0-11.09-5.062-11.09-12.674S710.6,246.049,716.8,246.049Zm1.584,5.413c-3.3,0-6.425,2.464-6.425,7.085s3.124,7.261,6.425,7.261c3.389,0,6.469-2.553,6.469-7.173S721.773,251.462,718.384,251.462Z" style="fill:#f7e72c"></path><path d="M764.5,270.824h-6.205v-3.08a8.991,8.991,0,0,1-7.261,3.388c-5.676,0-9.769-3.7-9.769-10.385v-14.3h6.161v13.422c0,3.917,2.156,6.03,5.412,6.03,3.345,0,5.457-2.113,5.457-6.03V246.444H764.5Z" style="fill:#f7e72c"></path><path d="M781.127,270.824h-6.161v-24.38h6.161v3.785a8.456,8.456,0,0,1,7.482-4.136v6.469H786.98c-3.653,0-5.853,1.408-5.853,6.117Z" style="fill:#f7e72c"></path><path d="M806.692,246.049a9.637,9.637,0,0,1,8.052,3.872v-3.477h6.2v24.38h-6.2V267.26a9.614,9.614,0,0,1-8.1,3.961c-6.161,0-11.09-5.062-11.09-12.674S800.487,246.049,806.692,246.049Zm1.584,5.413c-3.3,0-6.425,2.464-6.425,7.085s3.124,7.261,6.425,7.261c3.388,0,6.468-2.553,6.468-7.173S811.664,251.462,808.276,251.462Z" style="fill:#f7e72c"></path><path d="M848.449,257.358c0-3.917-2.157-6.029-5.413-6.029-3.344,0-5.5,2.112-5.5,6.029v13.466h-6.161v-24.38h6.161v3.037a9.107,9.107,0,0,1,7.349-3.388c5.678,0,9.726,3.7,9.726,10.429v14.3h-6.161Z" style="fill:#f7e72c"></path><path d="M865.826,251.506h-2.9v-5.062h2.9v-6.028h6.2v6.028h5.457v5.062H872.03V263.3c0,1.629.661,2.333,2.6,2.333h2.86v5.192h-3.872c-4.665,0-7.789-1.98-7.789-7.569Z" style="fill:#f7e72c"></path><path d="M896.979,271.221c-7.085,0-12.234-4.929-12.234-12.586,0-7.7,5.017-12.586,12.234-12.586,7.041,0,12.014,4.8,12.014,12.057a14.508,14.508,0,0,1-.176,2.376H890.994c.308,3.609,2.773,5.633,5.853,5.633a5.024,5.024,0,0,0,4.885-2.948h6.645C907.057,267.655,903.008,271.221,896.979,271.221Zm-5.941-14.875h11.574c-.088-3.212-2.64-5.237-5.809-5.237A5.663,5.663,0,0,0,891.038,256.346Z" style="fill:#f7e72c"></path><path d="M927.206,271.221c-6.117,0-10.386-3.566-10.65-8.1h6.2c.221,1.849,1.936,3.257,4.4,3.257,2.421,0,3.742-1.1,3.742-2.509,0-4.356-13.775-1.584-13.775-10.517,0-4.049,3.609-7.305,9.638-7.305,5.9,0,9.461,3.212,9.813,8.053h-5.9c-.177-1.892-1.673-3.168-4.093-3.168-2.289,0-3.477.923-3.477,2.332,0,4.444,13.51,1.672,13.686,10.6C936.8,268.052,933.147,271.221,927.206,271.221Z" style="fill:#f7e72c"></path></svg>